<svg width="500" height="500" viewBox="0 0 500 500" fill="none" xmlns="http://www.w3.org/2000/svg">
<rect width="500" height="500" rx="250" fill="#1E90FF"/>
<path d="M194.576 352.728C179.792 352.728 168.368 348.696 160.304 340.632C152.24 332.376 148.208 320.856 148.208 306.072V137.304H175.856V303.768C175.856 312.024 177.776 318.36 181.616 322.776C185.648 327.192 191.6 329.4 199.472 329.4C204.272 329.4 208.784 328.44 213.008 326.52L214.448 349.272C208.112 351.576 201.488 352.728 194.576 352.728ZM304.455 352.728C288.903 352.728 274.983 349.368 262.695 342.648C250.599 335.928 241.095 326.712 234.183 315C227.271 303.096 223.815 289.656 223.815 274.68C223.815 259.704 227.271 246.36 234.183 234.648C241.095 222.744 250.599 213.528 262.695 207C274.983 200.28 288.903 196.92 304.455 196.92C318.279 196.92 330.567 199.704 341.319 205.272C352.263 210.84 360.711 218.904 366.663 229.464L345.639 243C340.839 235.704 334.887 230.232 327.783 226.584C320.679 222.936 312.807 221.112 304.167 221.112C294.183 221.112 285.159 223.32 277.095 227.736C269.223 232.152 262.983 238.488 258.375 246.744C253.959 254.808 251.751 264.12 251.751 274.68C251.751 285.432 253.959 294.936 258.375 303.192C262.983 311.256 269.223 317.496 277.095 321.912C285.159 326.328 294.183 328.536 304.167 328.536C312.807 328.536 320.679 326.712 327.783 323.064C334.887 319.416 340.839 313.944 345.639 306.648L366.663 319.896C360.711 330.456 352.263 338.616 341.319 344.376C330.567 349.944 318.279 352.728 304.455 352.728Z" fill="white"/>
</svg>
